<?xml version="1.0" encoding="UTF-8"?>
<svg version="1.1" xmlns="http://www.w3.org/2000/svg" width="512" height="512">
<path d="M0 0 C3.26701612 2.66358727 6.39330111 5.45632415 9.50390625 8.30078125 C10.303125 9.0175 11.10234375 9.73421875 11.92578125 10.47265625 C23.25289034 21.15709249 31.22417267 34.17323423 37.50390625 48.30078125 C38.22707031 49.89986328 38.22707031 49.89986328 38.96484375 51.53125 C50.75297985 79.71561176 49.78417969 113.38067819 38.81640625 141.61328125 C32.88884236 155.96145228 24.9509354 167.8762523 14.50390625 179.30078125 C13.7871875 180.1 13.07046875 180.89921875 12.33203125 181.72265625 C-3.99714673 199.03404042 -28.01870027 211.626838 -51.49609375 215.30078125 C-53.8293499 215.31975959 -56.16285655 215.32196119 -58.49609375 215.30078125 C-58.55075898 229.00078248 -58.56245524 242.70008422 -58.5194397 256.40014744 C-58.50081216 262.76188281 -58.49693268 269.12291217 -58.52685547 275.48461914 C-58.55519432 281.62527524 -58.54466511 287.76475234 -58.5072937 293.90534782 C-58.49985263 296.24686374 -58.50636864 298.58846734 -58.52713013 300.92990303 C-58.55384778 304.21313666 -58.53074161 307.4925539 -58.49609375 310.77563477 C-58.51550522 311.74164612 -58.53491669 312.70765747 -58.55491638 313.70294189 C-58.46906278 317.69022391 -58.35439855 320.27211027 -55.74291992 323.40194511 C-53.73051829 325.16060433 -51.64922745 326.72100576 -49.49609375 328.30078125 C-35.42103718 342.66624983 -25.51030532 365.3009728 -25.3190918 385.39453125 C-25.30625656 386.57595703 -25.29342133 387.75738281 -25.28019714 388.97460938 C-25.26911674 390.86856445 -25.26911674 390.86856445 -25.2578125 392.80078125 C-25.24974075 394.10982422 -25.24166901 395.41886719 -25.23335266 396.76757812 C-25.21838698 399.53124863 -25.20851769 402.294894 -25.20092773 405.05859375 C-25.18983841 408.58927179 -25.15538424 412.11932397 -25.11575603 415.64978027 C-25.08326773 419.03342176 -25.07881205 422.41699589 -25.0703125 425.80078125 C-25.05280441 427.06341797 -25.03529633 428.32605469 -25.01725769 429.62695312 C-25.04476899 440.73678278 -25.04476899 440.73678278 -29.49609375 445.30078125 C-33.11518505 448.11070359 -35.69933054 448.66650472 -40.234375 448.59375 C-41.30107422 448.58408203 -42.36777344 448.57441406 -43.46679688 448.56445312 C-44.56958984 448.53931641 -45.67238281 448.51417969 -46.80859375 448.48828125 C-47.93072266 448.47474609 -49.05285156 448.46121094 -50.20898438 448.44726562 C-52.97184604 448.41199505 -55.73372204 448.3627036 -58.49609375 448.30078125 C-58.47514648 449.20844238 -58.45419922 450.11610352 -58.43261719 451.05126953 C-58.36418442 454.43955767 -58.3141708 457.82710475 -58.27636719 461.21582031 C-58.25633043 462.67850377 -58.22909271 464.14110791 -58.19433594 465.60351562 C-58.1454615 467.71374135 -58.12304716 469.82290261 -58.10546875 471.93359375 C-58.08452148 473.20090332 -58.06357422 474.46821289 -58.04199219 475.77392578 C-58.69813558 480.8699728 -60.84812036 484.02082819 -64.875 487.1484375 C-69.62438478 489.23646806 -74.41857526 488.91999082 -79.49609375 488.30078125 C-84.11455005 486.11309142 -86.21884028 483.80330346 -88.49609375 479.30078125 C-88.9284668 476.43823242 -88.9284668 476.43823242 -89.0078125 473.34375 C-89.06098633 471.67602539 -89.06098633 471.67602539 -89.11523438 469.97460938 C-89.13779297 468.82412109 -89.16035156 467.67363281 -89.18359375 466.48828125 C-89.21775391 465.31845703 -89.25191406 464.14863281 -89.28710938 462.94335938 C-89.36941691 460.06259571 -89.43862553 457.18212987 -89.49609375 454.30078125 C-89.86387939 455.04247559 -90.23166504 455.78416992 -90.6105957 456.54833984 C-98.44704517 472.11133471 -110.2183931 481.52482295 -126.49609375 487.30078125 C-138.0926273 490.67969279 -153.77264268 489.62314022 -164.49609375 484.30078125 C-165.50800781 483.80320312 -166.51992188 483.305625 -167.5625 482.79296875 C-179.92177185 476.14154585 -187.69252479 466.92946574 -193.49609375 454.30078125 C-193.82609375 452.32078125 -194.15609375 450.34078125 -194.49609375 448.30078125 C-230.46609375 448.30078125 -266.43609375 448.30078125 -303.49609375 448.30078125 C-303.82609375 450.28078125 -304.15609375 452.26078125 -304.49609375 454.30078125 C-310.4674248 468.7172805 -321.67877307 479.12292031 -335.87109375 485.17578125 C-348.14588302 490.06626457 -364.5204552 490.68904762 -376.8359375 485.62109375 C-377.71378906 485.18539063 -378.59164062 484.7496875 -379.49609375 484.30078125 C-380.50800781 483.80320312 -381.51992188 483.305625 -382.5625 482.79296875 C-394.92177185 476.14154585 -402.69252479 466.92946574 -408.49609375 454.30078125 C-408.86624627 452.30726721 -409.20549298 450.30743575 -409.49609375 448.30078125 C-410.07158966 448.3096637 -410.64708557 448.31854614 -411.24002075 448.32769775 C-417.24226934 448.41635026 -423.24433123 448.47658962 -429.24707031 448.52050781 C-431.48575396 448.54059441 -433.72438533 448.56786905 -435.96289062 448.60253906 C-439.18502724 448.65118589 -442.40646876 448.67377999 -445.62890625 448.69140625 C-446.62600616 448.71205139 -447.62310608 448.73269653 -448.65042114 448.75396729 C-454.42566168 448.75582247 -458.03933125 448.36626482 -462.49609375 444.30078125 C-465.78683537 440.02516991 -465.93558832 436.11668363 -465.91601562 430.90893555 C-465.92871994 429.65892006 -465.92871994 429.65892006 -465.94168091 428.38365173 C-465.96505786 425.63061184 -465.96607195 422.87813167 -465.96484375 420.125 C-465.97195147 418.19749227 -465.97965135 416.26998664 -465.98791504 414.34248352 C-466.00136624 410.2965407 -466.00292866 406.25079291 -465.99707031 402.20483398 C-465.99121286 397.06189176 -466.02159759 391.91990623 -466.06218719 386.77714825 C-466.08827328 382.79009611 -466.09092211 378.80326681 -466.08729553 374.81614113 C-466.08897134 372.92302892 -466.09846271 371.02990465 -466.11643982 369.13687706 C-466.29967867 347.43217139 -460.97601601 331.07378293 -445.49609375 315.30078125 C-444.88121094 314.66140625 -444.26632812 314.02203125 -443.6328125 313.36328125 C-432.01538546 302.21851185 -416.66816414 297.9212891 -400.98120117 298.14672852 C-399.15257655 298.18799128 -397.32426825 298.24291406 -395.49609375 298.30078125 C-395.32616409 297.7579097 -395.15623444 297.21503815 -394.9811554 296.65571594 C-393.14750367 290.95993075 -390.95090399 285.53817483 -388.4765625 280.09375 C-388.09550858 279.24710281 -387.71445465 278.40045563 -387.32185364 277.52815247 C-386.51963232 275.74821463 -385.71529619 273.96922855 -384.90893555 272.19116211 C-383.69254064 269.50801647 -382.48343242 266.82168082 -381.27539062 264.13476562 C-371.4125472 242.25449663 -361.96828327 222.20584687 -338.49609375 212.30078125 C-328.88954649 208.91739574 -320.14546138 207.71826839 -310.00195312 207.78320312 C-308.61374687 207.77776451 -307.2255464 207.77063222 -305.83735657 207.76196289 C-302.11201012 207.74393267 -298.38711331 207.75071155 -294.66176033 207.76347923 C-290.73522997 207.77371364 -286.80873426 207.76418494 -282.88220215 207.75793457 C-276.29232987 207.75068818 -269.70263779 207.76016623 -263.11279297 207.77929688 C-255.52933543 207.8010599 -247.94630829 207.79400638 -240.36286116 207.77199125 C-233.81375723 207.75375084 -227.26478173 207.75132084 -220.71566057 207.76174593 C-216.8208414 207.76793372 -212.92622352 207.76894841 -209.03141785 207.75559998 C-205.36704375 207.74391507 -201.70321634 207.75229313 -198.03890038 207.775177 C-196.07841588 207.78285765 -194.1178843 207.77121708 -192.15742493 207.75866699 C-173.39669357 207.93467875 -157.94230819 215.24766912 -144.5625 228.16796875 C-134.40608203 239.07084951 -129.11271391 253.51447344 -123.30859375 266.98828125 C-122.5078545 268.83298328 -121.70642641 270.67738646 -120.90429688 272.52148438 C-119.09770968 276.67648344 -117.29839616 280.83455642 -115.50430298 284.9949646 C-114.11617229 288.1696775 -112.67547484 291.32022539 -111.22758484 294.46809387 C-110.49609375 296.30078125 -110.49609375 296.30078125 -110.49609375 298.30078125 C-109.90183594 298.33816406 -109.30757813 298.37554687 -108.6953125 298.4140625 C-107.45201172 298.51267578 -107.45201172 298.51267578 -106.18359375 298.61328125 C-105.38308594 298.67128906 -104.58257812 298.72929687 -103.7578125 298.7890625 C-98.92107178 299.54788051 -94.21948378 301.01258397 -89.49609375 302.30078125 C-89.16609375 273.59078125 -88.83609375 244.88078125 -88.49609375 215.30078125 C-90.80609375 215.30078125 -93.11609375 215.30078125 -95.49609375 215.30078125 C-98.53463841 214.83813288 -101.46703418 214.03812926 -104.43359375 213.23828125 C-105.26334717 213.01495117 -106.09310059 212.79162109 -106.94799805 212.56152344 C-136.16463695 204.3566406 -162.33922671 184.58975313 -177.67773438 158.2734375 C-180.1748035 153.71661434 -182.38622716 149.04735833 -184.49609375 144.30078125 C-184.97820312 143.23472656 -185.4603125 142.16867188 -185.95703125 141.0703125 C-197.77270331 112.82011476 -196.74954729 79.32356916 -185.80859375 51.05078125 C-179.89382335 36.66578291 -171.96274345 24.74676659 -161.49609375 13.30078125 C-160.779375 12.5015625 -160.06265625 11.70234375 -159.32421875 10.87890625 C-148.63472588 -0.45356364 -135.62250476 -8.4051261 -121.49609375 -14.69921875 C-119.91441406 -15.42238281 -119.91441406 -15.42238281 -118.30078125 -16.16015625 C-80.31158865 -32.19140121 -32.31783025 -25.47213687 0 0 Z " fill="#DB1E28" transform="translate(465.49609375,23.69921875)"/>
<path d="M0 0 C3.26701612 2.66358727 6.39330111 5.45632415 9.50390625 8.30078125 C10.70273437 9.37585937 10.70273437 9.37585937 11.92578125 10.47265625 C23.25289034 21.15709249 31.22417267 34.17323423 37.50390625 48.30078125 C38.22707031 49.89986328 38.22707031 49.89986328 38.96484375 51.53125 C50.75297985 79.71561176 49.78417969 113.38067819 38.81640625 141.61328125 C32.88884236 155.96145228 24.9509354 167.8762523 14.50390625 179.30078125 C13.7871875 180.1 13.07046875 180.89921875 12.33203125 181.72265625 C-3.99714673 199.03404042 -28.01870027 211.626838 -51.49609375 215.30078125 C-53.80609375 215.30078125 -56.11609375 215.30078125 -58.49609375 215.30078125 C-58.49609375 249.95078125 -58.49609375 284.60078125 -58.49609375 320.30078125 C-62.8056996 318.14597832 -66.70260203 315.56842167 -70.66015625 312.84179688 C-76.4825548 308.98413147 -81.69100997 307.13623283 -88.49609375 304.30078125 C-88.49609375 274.93078125 -88.49609375 245.56078125 -88.49609375 215.30078125 C-90.80609375 215.30078125 -93.11609375 215.30078125 -95.49609375 215.30078125 C-98.53463841 214.83813288 -101.46703418 214.03812926 -104.43359375 213.23828125 C-105.26334717 213.01495117 -106.09310059 212.79162109 -106.94799805 212.56152344 C-136.16463695 204.3566406 -162.33922671 184.58975313 -177.67773438 158.2734375 C-180.1748035 153.71661434 -182.38622716 149.04735833 -184.49609375 144.30078125 C-184.97820312 143.23472656 -185.4603125 142.16867188 -185.95703125 141.0703125 C-197.77270331 112.82011476 -196.74954729 79.32356916 -185.80859375 51.05078125 C-179.89382335 36.66578291 -171.96274345 24.74676659 -161.49609375 13.30078125 C-160.779375 12.5015625 -160.06265625 11.70234375 -159.32421875 10.87890625 C-148.63472588 -0.45356364 -135.62250476 -8.4051261 -121.49609375 -14.69921875 C-120.44164062 -15.18132813 -119.3871875 -15.6634375 -118.30078125 -16.16015625 C-80.31158865 -32.19140121 -32.31783025 -25.47213687 0 0 Z " fill="#536EEB" transform="translate(465.49609375,23.69921875)"/>
<path d="M0 0 C0 79.2 0 158.4 0 240 C-17.49 240 -34.98 240 -53 240 C-53.33 241.98 -53.66 243.96 -54 246 C-59.97133105 260.41649925 -71.18267932 270.82213906 -85.375 276.875 C-97.64978927 281.76548332 -114.02436145 282.38826637 -126.33984375 277.3203125 C-127.21769531 276.88460938 -128.09554687 276.44890625 -129 276 C-130.01191406 275.50242187 -131.02382812 275.00484375 -132.06640625 274.4921875 C-144.4256781 267.8407646 -152.19643104 258.62868449 -158 246 C-158.37015252 244.00648596 -158.70939923 242.0066545 -159 240 C-159.57549591 240.00888245 -160.15099182 240.01776489 -160.743927 240.0269165 C-166.74617559 240.11556901 -172.74823748 240.17580837 -178.75097656 240.21972656 C-180.98966021 240.23981316 -183.22829158 240.2670878 -185.46679688 240.30175781 C-188.68893349 240.35040464 -191.91037501 240.37299874 -195.1328125 240.390625 C-196.12991241 240.41127014 -197.12701233 240.43191528 -198.15432739 240.45318604 C-203.92956793 240.45504122 -207.5432375 240.06548357 -212 236 C-215.29074162 231.72438866 -215.43949457 227.81590238 -215.41992188 222.6081543 C-215.42839142 221.77481064 -215.43686096 220.94146698 -215.44558716 220.08287048 C-215.46896411 217.32983059 -215.4699782 214.57735042 -215.46875 211.82421875 C-215.47585772 209.89671102 -215.4835576 207.96920539 -215.49182129 206.04170227 C-215.50527249 201.99575945 -215.50683491 197.95001166 -215.50097656 193.90405273 C-215.49511911 188.76111051 -215.52550384 183.61912498 -215.56609344 178.476367 C-215.59217953 174.48931486 -215.59482836 170.50248556 -215.59120178 166.51535988 C-215.59287759 164.62224767 -215.60236896 162.7291234 -215.62034607 160.83609581 C-215.80358492 139.13139014 -210.47992226 122.77300168 -195 107 C-194.38511719 106.360625 -193.77023438 105.72125 -193.13671875 105.0625 C-181.51929171 93.9177306 -166.17207039 89.62050785 -150.48510742 89.84594727 C-148.6564828 89.88721003 -146.8281745 89.94213281 -145 90 C-144.83007034 89.45712845 -144.66014069 88.9142569 -144.48506165 88.35493469 C-142.65140992 82.6591495 -140.45481024 77.23739358 -137.98046875 71.79296875 C-137.59941483 70.94632156 -137.2183609 70.09967438 -136.82575989 69.22737122 C-136.02353857 67.44743338 -135.21920244 65.6684473 -134.4128418 63.89038086 C-133.19644689 61.20723522 -131.98733867 58.52089957 -130.77929688 55.83398438 C-120.71353525 33.5035506 -111.40005935 14.68646778 -88 4 C-59.76617548 -4.06680701 -29.36362073 0 0 0 Z " fill="#FE3746" transform="translate(215,232)"/>
<path d="M0 0 C3.26701612 2.66358727 6.39330111 5.45632415 9.50390625 8.30078125 C10.70273437 9.37585937 10.70273437 9.37585937 11.92578125 10.47265625 C23.25289034 21.15709249 31.22417267 34.17323423 37.50390625 48.30078125 C38.22707031 49.89986328 38.22707031 49.89986328 38.96484375 51.53125 C50.75297985 79.71561176 49.78417969 113.38067819 38.81640625 141.61328125 C32.88884236 155.96145228 24.9509354 167.8762523 14.50390625 179.30078125 C13.7871875 180.1 13.07046875 180.89921875 12.33203125 181.72265625 C-3.99714673 199.03404042 -28.01870027 211.626838 -51.49609375 215.30078125 C-53.80609375 215.30078125 -56.11609375 215.30078125 -58.49609375 215.30078125 C-58.49609375 249.95078125 -58.49609375 284.60078125 -58.49609375 320.30078125 C-62.8056996 318.14597832 -66.70260203 315.56842167 -70.66015625 312.84179688 C-76.4825548 308.98413147 -81.69100997 307.13623283 -88.49609375 304.30078125 C-88.49609375 274.93078125 -88.49609375 245.56078125 -88.49609375 215.30078125 C-90.80609375 215.30078125 -93.11609375 215.30078125 -95.49609375 215.30078125 C-98.53463841 214.83813288 -101.46703418 214.03812926 -104.43359375 213.23828125 C-105.26334717 213.01495117 -106.09310059 212.79162109 -106.94799805 212.56152344 C-136.16463695 204.3566406 -162.33922671 184.58975313 -177.67773438 158.2734375 C-180.1748035 153.71661434 -182.38622716 149.04735833 -184.49609375 144.30078125 C-184.97820312 143.23472656 -185.4603125 142.16867188 -185.95703125 141.0703125 C-197.77270331 112.82011476 -196.74954729 79.32356916 -185.80859375 51.05078125 C-179.89382335 36.66578291 -171.96274345 24.74676659 -161.49609375 13.30078125 C-160.779375 12.5015625 -160.06265625 11.70234375 -159.32421875 10.87890625 C-148.63472588 -0.45356364 -135.62250476 -8.4051261 -121.49609375 -14.69921875 C-120.44164062 -15.18132813 -119.3871875 -15.6634375 -118.30078125 -16.16015625 C-80.31158865 -32.19140121 -32.31783025 -25.47213687 0 0 Z M-130.49609375 26.30078125 C-131.40746094 27.038125 -132.31882812 27.77546875 -133.2578125 28.53515625 C-149.48788832 42.38844273 -161.00630625 62.99034201 -163.49609375 84.30078125 C-165.37628883 110.32819376 -159.47565156 134.09908986 -142.49609375 154.30078125 C-141.90183594 155.04070312 -141.30757813 155.780625 -140.6953125 156.54296875 C-128.52680647 171.10486624 -111.70011438 179.96955373 -93.49609375 184.30078125 C-92.2740625 184.65527344 -91.05203125 185.00976562 -89.79296875 185.375 C-70.64330754 190.12182945 -48.59086628 185.55697516 -31.49609375 176.30078125 C-30.67238281 175.86121094 -29.84867188 175.42164063 -29 174.96875 C-7.09593972 162.56442257 7.44367485 142.47813823 14.37890625 118.48828125 C20.18779921 96.46690917 17.02081606 72.35489282 5.9453125 52.5078125 C-3.08807125 37.71642895 -14.47187864 25.96692272 -29.49609375 17.30078125 C-30.26179687 16.84960938 -31.0275 16.3984375 -31.81640625 15.93359375 C-63.29235952 -1.24480786 -103.24310283 3.69461367 -130.49609375 26.30078125 Z " fill="#C8DBE6" transform="translate(465.49609375,23.69921875)"/>
<path d="M0 0 C13.09551264 9.12955529 22.16562661 21.87790926 25.0625 37.75 C25.82121459 46.16959747 25.40389302 53.55512442 23.0625 61.75 C32.9625 61.75 42.8625 61.75 53.0625 61.75 C53.15466383 66.05609894 53.2341866 70.35873719 53.28222656 74.66503906 C53.30226332 76.12772252 53.32950104 77.59032666 53.36425781 79.05273438 C53.41313225 81.1629601 53.43554659 83.27212136 53.453125 85.3828125 C53.47407227 86.65012207 53.49501953 87.91743164 53.51660156 89.22314453 C52.86045817 94.31919155 50.71047339 97.47004694 46.68359375 100.59765625 C41.93420897 102.68568681 37.14001849 102.36920957 32.0625 101.75 C27.4440437 99.56231017 25.33975347 97.25252221 23.0625 92.75 C22.63012695 89.88745117 22.63012695 89.88745117 22.55078125 86.79296875 C22.51533203 85.68115234 22.47988281 84.56933594 22.44335938 83.42382812 C22.42080078 82.27333984 22.39824219 81.12285156 22.375 79.9375 C22.34083984 78.76767578 22.30667969 77.59785156 22.27148438 76.39257812 C22.18917684 73.51181446 22.11996822 70.63134862 22.0625 67.75 C21.69471436 68.49169434 21.32692871 69.23338867 20.94799805 69.99755859 C13.11154858 85.56055346 1.34020065 94.9740417 -14.9375 100.75 C-26.53403355 104.12891154 -42.21404893 103.07235897 -52.9375 97.75 C-53.94941406 97.25242187 -54.96132813 96.75484375 -56.00390625 96.2421875 C-69.19999319 89.14041355 -77.98481694 78.58671833 -83.1015625 64.55859375 C-87.3790696 48.58790135 -85.63514258 33.09819048 -77.8125 18.5625 C-69.5996713 5.34525126 -57.47099919 -3.47051932 -42.4765625 -7.5859375 C-27.49831936 -10.39642462 -13.1201114 -7.82827231 0 0 Z " fill="#444C54" transform="translate(353.9375,410.25)"/>
<path d="M0 0 C0 9.9 0 19.8 0 30 C-2.64 30.226875 -5.28 30.45375 -8 30.6875 C-26.72626145 32.64010626 -43.66784446 39.64848784 -58 52 C-58.72316406 52.56847656 -59.44632812 53.13695312 -60.19140625 53.72265625 C-75.92887166 66.61369313 -86.6492176 87.87932486 -89 108 C-90.88442026 134.08590144 -84.94007108 157.72438395 -68 178 C-67.21882813 178.99966797 -67.21882813 178.99966797 -66.421875 180.01953125 C-54.81177132 194.30672194 -37.56230738 202.78236837 -20 207 C-19.26394531 207.21269531 -18.52789062 207.42539063 -17.76953125 207.64453125 C-11.74260713 209.37183528 -6.56068683 209.4532761 0 210 C0 219.9 0 229.8 0 240 C-35.85256073 240 -64.29535152 226.66820442 -89.43359375 201.5703125 C-110.05531937 179.76918143 -120.72381819 149.9895126 -120.4375 120.25 C-120.43379395 119.5537854 -120.43008789 118.8575708 -120.42626953 118.14025879 C-120.19200609 87.09502895 -108.89584727 59.85101427 -88 37 C-87.28328125 36.20078125 -86.5665625 35.4015625 -85.828125 34.578125 C-75.13863213 23.24565511 -62.12641101 15.29409265 -48 9 C-46.94554687 8.51789062 -45.89109375 8.03578125 -44.8046875 7.5390625 C-38.40453156 4.83822943 -31.89997445 3.12881993 -25.125 1.6875 C-24.34737305 1.51573242 -23.56974609 1.34396484 -22.76855469 1.16699219 C-14.89994835 -0.37580864 -8.42351507 0 0 0 Z " fill="#E5EFF4" transform="translate(392,0)"/>
<path d="M0 0 C13.11585608 9.14373775 22.12771124 21.87069653 25.0625 37.75 C26.68772952 53.62281941 23.8675342 68.56757032 14.0234375 81.41015625 C5.34313727 91.57806977 -5.72243982 98.92511823 -18.9375 101.75 C-30.47008459 102.6440466 -42.39234432 102.98386581 -52.9375 97.75 C-53.94941406 97.25242187 -54.96132812 96.75484375 -56.00390625 96.2421875 C-69.19999319 89.14041355 -77.98481694 78.58671833 -83.1015625 64.55859375 C-87.3790696 48.58790135 -85.63514258 33.09819048 -77.8125 18.5625 C-69.5996713 5.34525126 -57.47099919 -3.47051932 -42.4765625 -7.5859375 C-27.49831936 -10.39642462 -13.1201114 -7.82827231 0 0 Z " fill="#545C64" transform="translate(138.9375,410.25)"/>
<path d="M0 0 C8.17233061 0 14.0525637 0.02808579 21.5625 2.1875 C22.78827759 2.52696655 22.78827759 2.52696655 24.03881836 2.87329102 C30.3288971 4.67464578 36.2364452 6.87495568 42 10 C42.8353125 10.45117188 43.670625 10.90234375 44.53125 11.3671875 C65.23406932 23.18824174 80.61319029 42.45757721 87.3125 65.375 C93.87664544 89.4712301 90.14429843 114.28408327 78.17724609 136.01855469 C69.90622182 149.9396731 58.00796403 160.99838765 44 169 C43.23558594 169.44988281 42.47117187 169.89976562 41.68359375 170.36328125 C28.87148704 177.36549862 14.40222524 180 0 180 C0 160.2 0 140.4 0 120 C6.27 119.67 12.54 119.34 19 119 C31.26626396 115.26678923 40.50085755 109.5596899 48 99 C53.91198385 87.36626941 56.21415772 75.10476924 53.09375 62.2734375 C48.97714356 51.0055468 41.79847742 40.96299985 30.89453125 35.421875 C25.19612103 33.00647091 19.87901324 30.99395066 13.671875 30.68359375 C12.5905127 30.62643188 12.5905127 30.62643188 11.48730469 30.56811523 C10.58399414 30.52501221 9.68068359 30.48190918 8.75 30.4375 C5.8625 30.293125 2.975 30.14875 0 30 C0 20.1 0 10.2 0 0 Z " fill="#325AD0" transform="translate(392,30)"/>
<path d="M0 0 C0.89386917 -0.0038269 1.78773834 -0.00765381 2.70869446 -0.01159668 C4.59381236 -0.01430773 6.4789684 -0.00700323 8.36401367 0.00976562 C11.21295651 0.0310607 14.05934122 0.01000268 16.90820312 -0.015625 C33.18650584 -0.04093868 45.32404044 2.95727548 57.67578125 14.03125 C66.44107878 23.09516488 69.84407436 34.51805707 69.86767578 46.82226562 C69.64869642 59.57173061 64.38415542 69.4355966 55.92578125 78.71875 C51.17642511 83.29457197 45.58988077 86.00288033 39.55078125 88.53125 C38.69484375 88.9128125 37.83890625 89.294375 36.95703125 89.6875 C31.71815243 90.98520393 26.54870317 90.73852089 21.17578125 90.65625 C20.05816406 90.64722656 18.94054687 90.63820313 17.7890625 90.62890625 C15.04274663 90.60543346 12.29687653 90.57259728 9.55078125 90.53125 C9.60878906 91.81 9.66679687 93.08875 9.7265625 94.40625 C9.77349372 96.11454656 9.81899025 97.82288295 9.86328125 99.53125 C9.90517578 100.37042969 9.94707031 101.20960938 9.99023438 102.07421875 C10.11221156 108.36824158 8.77839106 112.76066455 4.55078125 117.53125 C-0.14953438 120.31662223 -4.02596388 121.20915686 -9.44921875 120.53125 C-14.96840587 118.28615693 -17.13726171 116.13870767 -19.64073181 110.82176399 C-21.04313606 106.84863046 -21.0057896 103.00634721 -20.96679688 98.82983398 C-20.97380615 97.89381348 -20.98081543 96.95779297 -20.98803711 95.9934082 C-21.00554138 92.92107866 -20.99402205 89.8496815 -20.98046875 86.77734375 C-20.98316561 84.63078129 -20.98704964 82.48422003 -20.99206543 80.33766174 C-20.99795004 75.84811728 -20.98942991 71.35889201 -20.97070312 66.86938477 C-20.9479007 61.12378539 -20.96105183 55.37893294 -20.98499298 49.63336086 C-20.99946708 45.20402935 -20.99483775 40.77487409 -20.98448181 36.34553719 C-20.98181971 34.22730482 -20.98506604 32.10905629 -20.99440002 29.99084282 C-21.00459349 27.02788945 -20.98902554 24.06613582 -20.96679688 21.10327148 C-20.9748938 20.23398514 -20.98299072 19.36469879 -20.99133301 18.46907043 C-20.91109717 12.67697453 -19.81846269 9.28064612 -16.44921875 4.53125 C-11.03266797 0.40929713 -6.67703069 -0.06398604 0 0 Z " fill="#C7DBE5" transform="translate(377.44921875,59.46875)"/>
<path d="M0 0 C1.07314453 0.00302124 2.14628906 0.00604248 3.25195312 0.00915527 C7.23056769 0.02475823 11.2090443 0.0666417 15.1875 0.10546875 C28.5525 0.19828125 28.5525 0.19828125 42.1875 0.29296875 C42.1875 20.09296875 42.1875 39.89296875 42.1875 60.29296875 C10.1775 60.29296875 -21.8325 60.29296875 -54.8125 60.29296875 C-46.26300548 39.52991062 -46.26300548 39.52991062 -41.8125 29.73046875 C-41.08933594 28.08594727 -41.08933594 28.08594727 -40.3515625 26.40820312 C-35.36672566 15.45606821 -28.5281005 6.90474229 -17.47045898 1.72851562 C-11.7488843 -0.37001192 -6.02252478 -0.08061347 0 0 Z " fill="#44E8EE" transform="translate(157.8125,261.70703125)"/>
<path d="M0 0 C11.50875 -0.12375 11.50875 -0.12375 23.25 -0.25 C25.64668945 -0.28641602 28.04337891 -0.32283203 30.51269531 -0.36035156 C56.26064567 -0.59286136 56.26064567 -0.59286136 65.4375 8.25 C66.19933594 8.95640625 66.96117187 9.6628125 67.74609375 10.390625 C72.81123302 16.25459906 76.10643155 23.0090528 79.20703125 30.05859375 C79.57728928 30.8883522 79.9475473 31.71811066 80.32902527 32.57301331 C81.10226458 34.30874831 81.8726875 36.04574052 82.64038086 37.78393555 C83.82113626 40.45705166 85.01040032 43.12625449 86.20117188 45.79492188 C86.95361489 47.48676138 87.70558548 49.17881108 88.45703125 50.87109375 C88.81320023 51.67203964 89.1693692 52.47298553 89.53633118 53.29820251 C92 58.88256188 92 58.88256188 92 60 C61.64 60 31.28 60 0 60 C0 40.2 0 20.4 0 0 Z " fill="#37C7D1" transform="translate(230,262)"/>
<path d="M0 0 C3.815625 0.0825 7.63125 0.165 11.5625 0.25 C11.5625 10.15 11.5625 20.05 11.5625 30.25 C9.9125 30.25 8.2625 30.25 6.5625 30.25 C6.5625 40.15 6.5625 50.05 6.5625 60.25 C8.2125 60.25 9.8625 60.25 11.5625 60.25 C11.5625 70.15 11.5625 80.05 11.5625 90.25 C9.9125 90.25 8.2625 90.25 6.5625 90.25 C6.62050781 91.52875 6.67851562 92.8075 6.73828125 94.125 C6.78521247 95.83329656 6.830709 97.54163295 6.875 99.25 C6.91689453 100.08917969 6.95878906 100.92835938 7.00195312 101.79296875 C7.12393031 108.08699158 5.79010981 112.47941455 1.5625 117.25 C-3.13781563 120.03537223 -7.01424513 120.92790686 -12.4375 120.25 C-17.95668712 118.00490693 -20.12554296 115.85745767 -22.62901306 110.54051399 C-24.03141731 106.56738046 -23.99407085 102.72509721 -23.95507812 98.54858398 C-23.9620874 97.61256348 -23.96909668 96.67654297 -23.97631836 95.7121582 C-23.99382263 92.63982866 -23.9823033 89.5684315 -23.96875 86.49609375 C-23.97144686 84.34953129 -23.97533089 82.20297003 -23.98034668 80.05641174 C-23.98623129 75.56686728 -23.97771116 71.07764201 -23.95898438 66.58813477 C-23.93618195 60.84253539 -23.94933308 55.09768294 -23.97327423 49.35211086 C-23.98774833 44.92277935 -23.983119 40.49362409 -23.97276306 36.06428719 C-23.97010096 33.94605482 -23.97334729 31.82780629 -23.98268127 29.70959282 C-23.99287474 26.74663945 -23.97730679 23.78488582 -23.95507812 20.82202148 C-23.96317505 19.95273514 -23.97127197 19.08344879 -23.97961426 18.18782043 C-23.89934617 12.39339601 -22.79372518 9.00840187 -19.4375 4.25 C-13.39206446 -0.67532199 -7.54313811 -0.23098018 0 0 Z " fill="#E5EFF4" transform="translate(380.4375,59.75)"/>
<path d="M0 0 C9.9 0 19.8 0 30 0 C30 34.65 30 69.3 30 105 C25.69039415 102.84519707 21.79349172 100.26764042 17.8359375 97.54101562 C12.01353895 93.68335022 6.80508378 91.83545158 0 89 C0 59.63 0 30.26 0 0 Z " fill="#69727C" transform="translate(377,239)"/>
<path d="M0 0 C6.79064682 4.02654792 10.50702117 8.7375596 12.99609375 16.18359375 C14.34408814 24.51771557 12.29931106 30.9172544 7.8984375 37.93359375 C4.03032242 43.17849556 -1.73805463 45.90167 -8.00390625 47.18359375 C-15.75127165 48.13502459 -21.56184288 46.58956455 -28.00390625 42.18359375 C-33.51281128 37.40534349 -36.38525735 31.76159559 -37.35546875 24.58203125 C-37.77950613 16.65922751 -35.65943956 10.29932484 -30.359375 4.33203125 C-21.59320316 -3.70197725 -10.62293018 -5.47241858 0 0 Z " fill="#C6DAE4" transform="translate(336.00390625,434.81640625)"/>
<path d="M0 0 C6.17193728 3.76277061 9.77799714 9.17668148 12 16 C13.33893904 24.3390063 11.30635096 30.72866465 6.90234375 37.75 C3.03422867 42.99490181 -2.73414838 45.71807625 -9 47 C-16.75285459 47.95210495 -22.55035503 46.40001686 -29 42 C-34.83429523 37.0500611 -37.27962225 31.01062747 -38.3515625 23.5546875 C-38.79969409 16.03079394 -36.35293923 9.78300745 -31.35546875 4.14453125 C-22.26373239 -4.16732705 -10.97423851 -5.37472016 0 0 Z " fill="#E4EEF3" transform="translate(122,435)"/>
<path d="M0 0 C0.88353149 -0.00145523 1.76706299 -0.00291046 2.67736816 -0.00440979 C4.53641067 -0.00275748 6.3954678 0.00872852 8.25439453 0.02954102 C11.08555741 0.05850992 13.91484602 0.05013282 16.74609375 0.03710938 C18.55990485 0.04334753 20.37371009 0.05173907 22.1875 0.0625 C23.02623657 0.05956436 23.86497314 0.05662872 24.72912598 0.05360413 C31.5484701 0.16203421 36.26318265 1.46304563 41.53125 6.05859375 C44.12486873 9.51102663 44.24187884 12.80909233 44.01953125 17.02734375 C43.20142887 21.77083648 41.1273109 25.0583804 37.59375 28.37109375 C34.31615403 30.21474148 31.20927529 30.62062705 27.48706055 30.6730957 C26.68910568 30.68593094 25.89115082 30.69876617 25.0690155 30.71199036 C23.78768486 30.72307076 23.78768486 30.72307076 22.48046875 30.734375 C21.59269241 30.74244675 20.70491608 30.75051849 19.79023743 30.75883484 C17.91331927 30.77264745 16.03637628 30.78338219 14.15942383 30.79125977 C12.24593717 30.80278386 10.33248277 30.82324246 8.41918945 30.8527832 C5.64772801 30.89556078 2.87721979 30.91164216 0.10546875 30.921875 C-0.74267899 30.93938309 -1.59082672 30.95689117 -2.4646759 30.97492981 C-8.27488097 30.95387716 -11.62140989 29.82914335 -16.40625 26.49609375 C-19.24520714 23.04523106 -20.29162524 19.31279514 -20.90625 14.93359375 C-20.30438605 10.79577908 -19.28107468 7.58707066 -16.40625 4.49609375 C-10.79411835 0.62901772 -6.73564999 -0.09021682 0 0 Z " fill="#F9C10F" transform="translate(390.40625,371.50390625)"/>
<path d="M0 0 C4.95 0.33 9.9 0.66 15 1 C15 32.02 15 63.04 15 95 C10.05 93.02 5.1 91.04 0 89 C0 59.63 0 30.26 0 0 Z " fill="#7B8295" transform="translate(377,239)"/>
<path d="M0 0 C9.9 0 19.8 0 30 0 C30.09216383 4.30609894 30.1716866 8.60873719 30.21972656 12.91503906 C30.23976332 14.37772252 30.26700104 15.84032666 30.30175781 17.30273438 C30.35063225 19.4129601 30.37304659 21.52212136 30.390625 23.6328125 C30.41157227 24.90012207 30.43251953 26.16743164 30.45410156 27.47314453 C29.79795817 32.56919155 27.64797339 35.72004694 23.62109375 38.84765625 C18.87170897 40.93568681 14.07751849 40.61920957 9 40 C4.40327129 37.82260219 2.20194743 35.52943931 0 31 C-0.34057617 27.58666992 -0.34057617 27.58666992 -0.29296875 23.73046875 C-0.28872391 23.04946609 -0.28447906 22.36846344 -0.28010559 21.66682434 C-0.2634061 19.50663541 -0.22577312 17.34740358 -0.1875 15.1875 C-0.17244174 13.71681042 -0.15875534 12.24610611 -0.14648438 10.77539062 C-0.11609135 7.18293466 -0.0573615 3.59252966 0 0 Z " fill="#69737D" transform="translate(377,472)"/>
<path d="M0 0 C2.660625 -0.061875 5.32125 -0.12375 8.0625 -0.1875 C8.8862915 -0.21481201 9.71008301 -0.24212402 10.55883789 -0.27026367 C17.2539754 -0.34482334 21.85600607 0.99583176 26.875 5.6875 C29.37817214 9.58950363 30.29494334 12.38815869 30 17 C28.30779132 22.87295952 25.87524 25.61718041 21 29 C18.24639585 29.89203708 15.77457567 30.11950436 12.890625 30.09765625 C12.21032227 30.09515869 11.53001953 30.09266113 10.82910156 30.09008789 C9.97799805 30.08098389 9.12689453 30.07187988 8.25 30.0625 C5.5275 30.041875 2.805 30.02125 0 30 C0 20.1 0 10.2 0 0 Z " fill="#325AD0" transform="translate(387,90)"/>
<path d="M0 0 C4.95 0 9.9 0 15 0 C15 13.2 15 26.4 15 40 C8.78970327 40 7.55537532 39.74553082 3 36 C-0.11209734 31.88766752 -0.35587115 28.82556297 -0.29296875 23.73046875 C-0.28872391 23.04946609 -0.28447906 22.36846344 -0.28010559 21.66682434 C-0.2634061 19.50663541 -0.22577312 17.34740358 -0.1875 15.1875 C-0.17244174 13.71681042 -0.15875534 12.24610611 -0.14648438 10.77539062 C-0.11609135 7.18293466 -0.0573615 3.59252966 0 0 Z " fill="#7A8396" transform="translate(377,472)"/>
<path d="M0 0 C1.65 0 3.3 0 5 0 C5 9.9 5 19.8 5 30 C3.35 30 1.7 30 0 30 C0 20.1 0 10.2 0 0 Z " fill="#536EEB" transform="translate(387,90)"/>
</svg>
