<?xml version="1.0" encoding="UTF-8"?>
<svg version="1.1" xmlns="http://www.w3.org/2000/svg" width="512" height="512">
<path d="M0 0 C1.90655822 -0.00407112 3.81311409 -0.00941602 5.71966553 -0.01593018 C10.8704072 -0.02954435 16.02096753 -0.02432982 21.17171216 -0.01479292 C26.57622575 -0.00716677 31.98072441 -0.01425001 37.38523865 -0.01895142 C46.45786307 -0.02439991 55.53041408 -0.01724067 64.60302734 -0.00292969 C75.07602015 0.01339997 85.54883775 0.00810232 96.02182633 -0.0084089 C105.03276074 -0.02204373 114.04364256 -0.02393382 123.05458397 -0.0160929 C128.42816312 -0.011428 133.80166005 -0.01075902 139.17523384 -0.02070236 C144.22736905 -0.029399 149.27927935 -0.02330093 154.33139038 -0.00601959 C156.18002385 -0.00206935 158.02867641 -0.00316359 159.87730217 -0.00980759 C175.8038889 -0.06174989 188.97791051 2.04986487 201.04806519 13.30114746 C207.09873666 19.73920575 210.47439092 28.27677811 213.75170898 36.35693359 C214.16494415 37.35905884 214.57817932 38.36118408 215.00393677 39.39367676 C215.86636003 41.4895737 216.72495554 43.58704952 217.57983398 45.68603516 C218.89374986 48.91083318 220.22018324 52.13026632 221.54858398 55.34912109 C222.38785392 57.39309305 223.22642147 59.43735358 224.06420898 61.48193359 C224.6593782 62.92868469 224.6593782 62.92868469 225.26657104 64.40466309 C225.62759918 65.2931897 225.98862732 66.18171631 226.3605957 67.09716797 C226.68003143 67.87974976 226.99946716 68.66233154 227.32858276 69.46862793 C228.00952148 71.38818359 228.00952148 71.38818359 228.00952148 73.38818359 C229.13229492 73.03884766 230.25506836 72.68951172 231.41186523 72.32958984 C252.69270108 65.81107139 252.69270108 65.81107139 260.00952148 69.38818359 C264.21051531 72.37735228 266.44118642 74.50145355 268.00952148 79.38818359 C268.43427229 82.98500193 268.37971777 86.58108846 268.38452148 90.20068359 C268.40901367 91.16039062 268.43350586 92.12009766 268.45874023 93.10888672 C268.48885252 100.46130286 267.17500877 105.87700069 262.18530273 111.41162109 C261.26297852 112.08064453 261.26297852 112.08064453 260.32202148 112.76318359 C259.4190332 113.45541016 259.4190332 113.45541016 258.49780273 114.16162109 C254.83805805 115.96563967 250.99986662 116.63010916 247.00952148 117.38818359 C247.200625 117.91436279 247.39172852 118.44054199 247.58862305 118.98266602 C248.49508964 121.50817356 249.37703952 124.04169968 250.25952148 126.57568359 C250.55987305 127.40132813 250.86022461 128.22697266 251.16967773 129.07763672 C257.61504285 147.79662264 258.61635276 166.46168372 258.54077148 186.09521484 C258.54347378 188.60194549 258.5473623 191.10867511 258.55236816 193.61540222 C258.55821432 198.82337601 258.54984986 204.03107248 258.53100586 209.23901367 C258.5126502 214.57026711 258.51176622 219.90096567 258.53100586 225.23217773 C258.55421135 231.72092572 258.55782711 238.2093505 258.54478455 244.69812584 C258.54212555 247.15604416 258.54535773 249.61397644 258.55470276 252.07187843 C258.56488668 255.4977541 258.54934682 258.92259029 258.52709961 262.34838867 C258.53519653 263.35261871 258.54329346 264.35684875 258.55163574 265.39151001 C258.46572188 272.55039777 257.11952967 278.24235958 251.97436523 283.44677734 C251.3053418 283.90181641 250.63631836 284.35685547 249.94702148 284.82568359 C249.27541992 285.29876953 248.60381836 285.77185547 247.91186523 286.25927734 C243.72735506 288.7424877 239.61567768 288.58119073 234.90405273 288.62646484 C234.1060173 288.63453659 233.30798187 288.64260834 232.48576355 288.65092468 C230.79538129 288.66475112 229.10497127 288.67547972 227.41455078 288.68334961 C225.69506588 288.69484631 223.97561601 288.71526152 222.25634766 288.74487305 C219.76367086 288.78779649 217.27205443 288.80375422 214.77905273 288.81396484 C213.64111015 288.84022697 213.64111015 288.84022697 212.48017883 288.86701965 C206.00113419 288.84107114 200.61357948 286.96259387 195.95092773 282.35302734 C195.49588867 281.68400391 195.04084961 281.01498047 194.57202148 280.32568359 C194.09893555 279.65408203 193.62584961 278.98248047 193.13842773 278.29052734 C187.15623133 268.20980191 191.00952148 255.7618054 191.00952148 244.38818359 C116.75952148 244.38818359 42.50952148 244.38818359 -33.99047852 244.38818359 C-33.99047852 252.63818359 -33.99047852 260.88818359 -33.99047852 269.38818359 C-37.3757577 280.67244755 -37.3757577 280.67244755 -40.86547852 283.38818359 C-41.85161133 284.19255859 -41.85161133 284.19255859 -42.85766602 285.01318359 C-47.80847418 288.2049134 -52.2763517 288.70660681 -58.07250977 288.72412109 C-58.84551926 288.73077789 -59.61852875 288.73743469 -60.41496277 288.74429321 C-62.04631177 288.7543891 -63.67770182 288.75911118 -65.30908203 288.75878906 C-67.78496631 288.76315185 -70.25905102 288.79947204 -72.73461914 288.83740234 C-74.32640998 288.84327356 -75.91820921 288.84724091 -77.51000977 288.84912109 C-78.24049026 288.86349213 -78.97097076 288.87786316 -79.72358704 288.89266968 C-86.06654711 288.83722985 -91.1605844 286.78102842 -96.01391602 282.67724609 C-96.45993164 282.12810547 -96.90594727 281.57896484 -97.36547852 281.01318359 C-97.82696289 280.46919922 -98.28844727 279.92521484 -98.76391602 279.36474609 C-102.33462268 273.61067739 -102.28244218 267.8523333 -102.26513672 261.30981445 C-102.27024765 260.30879196 -102.27535858 259.30776947 -102.28062439 258.27641296 C-102.29451337 254.96855668 -102.29356203 251.66090933 -102.29125977 248.35302734 C-102.29515121 246.03536401 -102.2994868 243.71770139 -102.304245 241.40003967 C-102.31170878 236.53367815 -102.31141777 231.66738912 -102.30615234 226.80102539 C-102.30040192 220.62193921 -102.31718002 214.44315712 -102.34049702 208.26412106 C-102.35538183 203.46881935 -102.35608548 198.67358802 -102.35298729 193.87826729 C-102.35349461 191.60413582 -102.35861914 189.32999978 -102.36879921 187.05589104 C-102.44062696 168.74294382 -101.47675412 150.61498448 -95.99047852 133.01318359 C-95.74297852 132.16498047 -95.49547852 131.31677734 -95.24047852 130.44287109 C-93.79463003 125.5932543 -92.07775172 120.99757859 -89.99047852 116.38818359 C-90.57055664 116.36240234 -91.15063477 116.33662109 -91.74829102 116.31005859 C-98.55534922 115.81581674 -102.56851505 114.07925411 -107.24047852 108.88818359 C-111.51714559 102.77865921 -111.35676697 97.83959294 -111.36547852 90.51318359 C-111.3899707 89.43681641 -111.41446289 88.36044922 -111.43969727 87.25146484 C-111.46935624 79.23365495 -110.33141316 75.82192198 -104.74047852 70.07568359 C-99.96646908 67.14617781 -95.02539021 66.99184338 -89.66625977 68.13037109 C-88.20824918 68.49389301 -86.75371844 68.87165235 -85.30297852 69.26318359 C-83.84087267 69.63610417 -82.37863629 70.0085134 -80.91625977 70.38037109 C-80.28115479 70.54907715 -79.6460498 70.7177832 -78.99169922 70.89160156 C-76.67132073 71.46737927 -74.33567462 71.92509012 -71.99047852 72.38818359 C-71.65341385 71.55705551 -71.65341385 71.55705551 -71.30953979 70.70913696 C-68.95041256 64.89673953 -66.57966887 59.08917703 -64.20239258 53.28417969 C-63.31892346 51.12261664 -62.43833561 48.95987348 -61.56079102 46.79589844 C-60.29247861 43.66979662 -59.01356025 40.5482103 -57.73266602 37.42724609 C-57.34803192 36.4726651 -56.96339783 35.51808411 -56.56710815 34.53457642 C-50.95047666 20.93136202 -43.82125609 9.62278281 -29.99047852 3.38818359 C-20.1637135 -0.35938689 -10.3409645 -0.03721018 0 0 Z M-23.51928711 26.4140625 C-26.10278382 29.88073267 -27.69842754 33.57970956 -29.30297852 37.57568359 C-29.69831787 38.52040527 -30.09365723 39.46512695 -30.50097656 40.43847656 C-31.71447318 43.35433495 -32.90923237 46.27729011 -34.09887695 49.20294189 C-35.48027641 52.58863773 -36.87693412 55.96801769 -38.27156067 59.34828186 C-42.90054954 70.57221946 -47.51159801 81.80331422 -52.04669189 93.06555176 C-52.90802056 95.18525692 -53.78960521 97.29497899 -54.67944336 99.40283203 C-55.14688965 100.54010742 -55.61433594 101.67738281 -56.09594727 102.84912109 C-56.49322021 103.79319824 -56.89049316 104.73727539 -57.29980469 105.70996094 C-58.14087329 108.97136871 -57.84646057 111.14907291 -56.99047852 114.38818359 C-55.09926059 116.6454437 -53.61755003 118.07464784 -50.99047852 119.38818359 C-49.57350105 119.4844536 -48.15210139 119.51914688 -46.73186111 119.52240467 C-45.83286315 119.52686251 -44.93386519 119.53132036 -44.00762486 119.53591329 C-43.01367861 119.53572893 -42.01973235 119.53554456 -40.9956665 119.53535461 C-39.41911856 119.54086965 -39.41911856 119.54086965 -37.81072116 119.54649609 C-34.2654922 119.55756756 -30.72029252 119.56138262 -27.17504883 119.56518555 C-24.64264838 119.57144755 -22.11024885 119.57809411 -19.57785034 119.58509827 C-11.96123878 119.60435142 -4.34463236 119.61493026 3.27199733 119.62382606 C6.85753331 119.62820758 10.4430678 119.63357476 14.0286026 119.63881493 C25.94572518 119.65582845 37.86284684 119.6703229 49.77997971 119.67756367 C52.87342073 119.67947361 55.96686174 119.68139393 59.06030273 119.68334961 C60.21361335 119.68407522 60.21361335 119.68407522 61.39022318 119.68481549 C73.84708509 119.6931168 86.303851 119.71845484 98.76067099 119.75093029 C111.54572552 119.78399008 124.33073125 119.80201146 137.11582875 119.80520791 C144.29585422 119.80737406 151.47573972 119.81613786 158.65572357 119.84166908 C165.40919459 119.86562796 172.16236994 119.86920857 178.91588974 119.8589077 C181.39671796 119.85841069 183.87755832 119.8647794 186.35834885 119.87846375 C189.74146263 119.89608343 193.12366144 119.88912462 196.5067749 119.87593079 C197.98430996 119.89238466 197.98430996 119.89238466 199.49169421 119.90917093 C205.29414978 119.85442201 208.58196711 119.24241496 213.00952148 115.38818359 C215.02233682 111.36255292 213.58096077 106.25173872 212.3067627 102.09637451 C211.40345316 99.69576411 210.43417154 97.33490279 209.43139648 94.97412109 C209.06823837 94.09322311 208.70508026 93.21232513 208.33091736 92.30473328 C207.15182814 89.45267101 205.95632327 86.60785331 204.75952148 83.76318359 C203.93943161 81.79404885 203.12018327 79.82456343 202.30175781 77.85473633 C200.65821562 73.90331375 199.00806589 69.95473951 197.35375977 66.0078125 C195.23506015 60.94366416 193.16082532 55.86255368 191.09936523 50.77490234 C190.23606617 48.65972673 189.37111362 46.54523993 188.50500488 44.43121338 C187.9713813 43.12319467 187.44159804 41.81360189 186.91589355 40.50238037 C186.19197822 38.70041372 185.45075959 36.9054274 184.70874023 35.11083984 C184.30486084 34.11834229 183.90098145 33.12584473 183.48486328 32.10327148 C179.98675084 25.66565632 173.5798459 20.48992613 166.71050644 18.01695061 C160.44904033 16.55933296 153.87035584 16.96449767 147.47094727 16.98413086 C145.79142809 16.97842261 144.11191279 16.9714566 142.43240356 16.96333313 C137.88684003 16.94543571 133.3414699 16.94656379 128.79588175 16.95227551 C124.99385665 16.95537266 121.19186843 16.94926899 117.38984859 16.94323677 C108.41619906 16.92920404 99.44264476 16.93074209 90.46899414 16.94213867 C81.22808696 16.95361573 71.98747014 16.93954829 62.74660122 16.9127422 C54.79728411 16.89055064 46.84805791 16.88395569 38.89871204 16.88981861 C34.15773684 16.89318148 29.41694768 16.8908179 24.67599869 16.87356758 C20.2156173 16.8580456 15.75566432 16.86211193 11.29529953 16.88087273 C9.66436085 16.88454427 8.03339006 16.88149224 6.40248108 16.87098694 C-5.05836762 16.80283618 -15.35058257 17.38248342 -23.51928711 26.4140625 Z M-60.99047852 165.38818359 C-64.36910589 170.03052855 -63.32419029 176.32923436 -63.30615234 181.80541992 C-63.30299376 183.81598199 -63.32646468 185.82506899 -63.35180664 187.83544922 C-63.35245117 189.1096875 -63.3530957 190.38392578 -63.35375977 191.69677734 C-63.35674072 192.86007568 -63.35972168 194.02337402 -63.36279297 195.22192383 C-62.94660546 198.76129159 -62.17829154 200.59303985 -59.99047852 203.38818359 C-56.71601354 205.49002451 -54.04663277 205.64553571 -50.19970703 205.6628418 C-49.03492325 205.67237381 -47.87013947 205.68190582 -46.6700592 205.69172668 C-44.78872536 205.69035957 -44.78872536 205.69035957 -42.86938477 205.68896484 C-40.93131203 205.69539253 -40.93131203 205.69539253 -38.9540863 205.70195007 C-36.22130222 205.70940285 -33.48864734 205.70912794 -30.75585938 205.70385742 C-27.26097398 205.69806412 -23.76661878 205.71499422 -20.27182102 205.7382021 C-16.9293203 205.75651238 -13.58693535 205.75275353 -10.24438477 205.75146484 C-8.99218643 205.76067459 -7.7399881 205.76988434 -6.44984436 205.77937317 C-5.28190842 205.77314438 -4.11397247 205.76691559 -2.91064453 205.76049805 C-1.88568375 205.76112747 -0.86072296 205.7617569 0.19529724 205.7624054 C3.46980754 205.326977 5.35665485 204.32624385 8.00952148 202.38818359 C9.49523545 199.41675567 9.19282772 196.37427465 9.21264648 193.11474609 C9.21834656 192.3945932 9.22404663 191.67444031 9.22991943 190.9324646 C9.23936983 189.40762807 9.24590358 187.88277111 9.24975586 186.35791016 C9.25945521 184.02909547 9.29047388 181.70116583 9.32202148 179.37255859 C9.32855235 177.890793 9.3338025 176.40902109 9.33764648 174.92724609 C9.35616669 173.88487289 9.35616669 173.88487289 9.37506104 172.82144165 C9.36104531 169.7674714 9.16769027 167.67398821 7.67651367 164.97949219 C4.5891132 162.03226368 1.38592206 162.25401755 -2.66772461 162.22705078 C-3.83258392 162.21744324 -4.99744324 162.20783569 -6.19760132 162.19793701 C-7.45698517 162.19368713 -8.71636902 162.18943726 -10.01391602 162.18505859 C-11.30737946 162.17935852 -12.6008429 162.17365845 -13.9335022 162.16778564 C-16.67222486 162.15728687 -19.41091826 162.15143684 -22.1496582 162.14794922 C-25.65238375 162.14246622 -29.15472024 162.11843818 -32.65732384 162.08997726 C-36.00534707 162.06683102 -39.35331692 162.06490008 -42.70141602 162.06005859 C-44.5844191 162.04153839 -44.5844191 162.04153839 -46.50546265 162.02264404 C-47.67662628 162.02564514 -48.84778992 162.02864624 -50.05444336 162.03173828 C-51.08242035 162.02809265 -52.11039734 162.02444702 -53.16952515 162.02069092 C-56.44838263 162.44783591 -58.32231687 163.46985229 -60.99047852 165.38818359 Z M148.00952148 165.38818359 C144.84508773 171.01656407 145.68045411 177.55990339 145.69702148 183.82568359 C145.6809082 185.040625 145.66479492 186.25556641 145.64819336 187.50732422 C145.64754883 188.68359375 145.6469043 189.85986328 145.64624023 191.07177734 C145.64325928 192.13968506 145.64027832 193.20759277 145.63720703 194.30786133 C146.07657889 197.94297923 147.05495395 200.2987237 149.00952148 203.38818359 C152.24975837 205.52876516 154.97020385 205.64561145 158.80029297 205.6628418 C159.96507675 205.67237381 161.12986053 205.68190582 162.3299408 205.69172668 C164.21127464 205.69035957 164.21127464 205.69035957 166.13061523 205.68896484 C168.06868797 205.69539253 168.06868797 205.69539253 170.0459137 205.70195007 C172.77869778 205.70940285 175.51135266 205.70912794 178.24414062 205.70385742 C181.73902602 205.69806412 185.23338122 205.71499422 188.72817898 205.7382021 C192.0706797 205.75651238 195.41306465 205.75275353 198.75561523 205.75146484 C200.00781357 205.76067459 201.2600119 205.76988434 202.55015564 205.77937317 C203.71809158 205.77314438 204.88602753 205.76691559 206.08935547 205.76049805 C207.11431625 205.76112747 208.13927704 205.7617569 209.19529724 205.7624054 C212.47717662 205.3259971 214.3529385 204.33516618 217.00952148 202.38818359 C219.10276904 198.67491702 219.2662925 195.38140011 219.27514648 191.16943359 C219.27772461 189.98994141 219.28030273 188.81044922 219.28295898 187.59521484 C219.27135742 185.76023437 219.27135742 185.76023437 219.25952148 183.88818359 C219.26725586 182.66486328 219.27499023 181.44154297 219.28295898 180.18115234 C219.2790918 178.41191406 219.2790918 178.41191406 219.27514648 176.60693359 C219.2717627 174.9972168 219.2717627 174.9972168 219.26831055 173.35498047 C218.99371254 170.20694743 218.5618653 168.14192688 217.00952148 165.38818359 C213.2972841 162.67040708 210.66924357 162.01065939 206.10522461 162 C204.35816223 161.98581528 204.35816223 161.98581528 202.57580566 161.97134399 C200.70221375 161.98045303 200.70221375 161.98045303 198.79077148 161.98974609 C197.50013794 161.98687592 196.20950439 161.98400574 194.87976074 161.98104858 C192.15288476 161.97663533 189.4263044 161.98302358 186.69946289 161.99707031 C183.21241981 162.01416216 179.72606952 162.00431554 176.23905182 161.98635292 C172.90207019 161.97287658 169.56527276 161.9823251 166.22827148 161.98974609 C164.97921021 161.9836734 163.73014893 161.97760071 162.4432373 161.97134399 C160.69617493 161.98552872 160.69617493 161.98552872 158.91381836 162 C157.89187378 162.00238678 156.8699292 162.00477356 155.8170166 162.00723267 C152.54306968 162.45147676 150.66169976 163.44620471 148.00952148 165.38818359 Z " fill="#000000" transform="translate(110.990478515625,153.61181640625)"/>
<path d="M0 0 C0.88157272 -0.0071553 1.76314545 -0.01431061 2.6714325 -0.02168274 C3.6361145 -0.02437164 4.60079651 -0.02706055 5.5947113 -0.02983093 C7.12209175 -0.03968773 7.12209175 -0.03968773 8.68032837 -0.04974365 C12.05730767 -0.06948669 15.4342424 -0.08114349 18.81126404 -0.09111023 C19.96548292 -0.09518576 21.11970181 -0.09926128 22.30889702 -0.10346031 C28.42174476 -0.12432848 34.53457001 -0.13862521 40.64744568 -0.147995 C46.94993344 -0.15904186 53.25206643 -0.19342014 59.55442905 -0.23316669 C64.40932859 -0.2593668 69.26414419 -0.26769003 74.1191082 -0.27127647 C76.44142481 -0.2761361 78.76373783 -0.28773215 81.08598518 -0.30631447 C84.3456861 -0.33077015 87.60447719 -0.32972841 90.86424255 -0.32279968 C91.81475494 -0.33560974 92.76526733 -0.3484198 93.74458313 -0.36161804 C101.23733231 -0.30389296 108.10662497 1.32728416 114.08470154 6.04170227 C114.5913031 6.67463196 115.09790466 7.30756165 115.61985779 7.95967102 C116.14450623 8.58486633 116.66915466 9.21006165 117.20970154 9.85420227 C121.52524812 16.57363422 122.1223886 21.97644668 122.08641052 29.820755 C122.09327377 30.87206604 122.10013702 31.92337708 122.10720825 33.00654602 C122.12545397 36.46892443 122.12164181 39.93084877 122.11595154 43.39326477 C122.12051433 45.80790351 122.12582019 48.22254095 122.13183594 50.63717651 C122.14076265 55.6933775 122.13834871 60.7494205 122.12840271 65.80561829 C122.11691277 72.27638446 122.13712784 78.74660496 122.16631985 85.21729946 C122.18468923 90.20252938 122.18438787 95.18762871 122.17868233 100.17288399 C122.17852921 102.55824105 122.18456556 104.94360702 122.1969738 107.32893181 C122.21189557 110.66769768 122.20119692 114.00545753 122.18406677 117.3441925 C122.19856873 118.81339897 122.19856873 118.81339897 122.21336365 120.31228638 C122.13182763 127.92373379 120.29209939 133.12536495 115.30735779 138.89717102 C106.86092968 146.13696654 99.1279197 147.48140657 88.27220154 147.34248352 C86.9928347 147.33823868 86.9928347 147.33823868 85.68762207 147.33390808 C82.99821661 147.32282933 80.30916037 147.29774895 77.61985779 147.27217102 C75.78197202 147.26212527 73.94408096 147.25300223 72.10618591 147.24482727 C67.63144465 147.22293053 63.15696016 147.18848776 58.68235779 147.14717102 C58.68512317 148.25576823 58.68788855 149.36436544 58.69073772 150.50655651 C58.75729394 177.46329252 58.80661489 204.42001788 58.8377943 231.37681866 C58.85327264 244.41284795 58.87438068 257.44882302 58.90867615 270.4848175 C58.93854885 281.84508211 58.95792575 293.20530744 58.96462327 304.56561023 C58.96853912 310.58252339 58.97776211 316.5993242 58.99954796 322.6162014 C59.01987939 328.27714982 59.02619832 333.93793936 59.02168083 339.59892082 C59.02250753 341.67864088 59.02849297 343.75836613 59.03997421 345.83805466 C59.05486587 348.6741338 59.05132344 351.50961049 59.04312134 354.34570312 C59.05185986 355.17158375 59.06059839 355.99746437 59.06960171 356.84837168 C59.03351849 361.45377121 58.61468068 364.37581603 55.68235779 368.14717102 C53.07044246 370.27539833 50.92470169 370.26279023 47.68235779 370.02217102 C44.77049224 369.5612612 43.6863795 369.15016153 41.24485779 367.33467102 C38.03611691 362.84243379 38.54318156 357.87514534 38.56210327 352.54188538 C38.56124885 351.66458747 38.56039442 350.78728957 38.55951411 349.88340688 C38.55786462 346.93843 38.56337203 343.99350985 38.5688324 341.04853821 C38.56911441 338.93960064 38.56895626 336.83066297 38.56838989 334.72172546 C38.56810247 328.99073158 38.5739904 323.25975853 38.58096385 317.52876949 C38.58720645 311.54164675 38.58780191 305.55452356 38.58898926 299.56739807 C38.59209989 288.22733393 38.60030969 276.88727941 38.61033875 265.54721951 C38.62150818 252.63806288 38.62701243 239.7289058 38.63203418 226.81974554 C38.64249251 200.26221536 38.66008679 173.70469373 38.68235779 147.14717102 C36.98091614 147.16288147 36.98091614 147.16288147 35.24510193 147.1789093 C31.0014822 147.21534937 26.75787607 147.23815817 22.5141449 147.2570343 C20.68404304 147.2670375 18.85395695 147.28064437 17.02391052 147.29804993 C14.38007191 147.32254993 11.73644621 147.33371115 9.09251404 147.34248352 C8.28588821 147.35280609 7.47926239 147.36312866 6.64819336 147.37376404 C-2.40272935 147.37551663 -10.23274504 146.1572903 -16.91139221 139.57685852 C-23.44960579 132.42969368 -24.76540169 126.10262534 -24.70582581 116.65718079 C-24.71108276 115.62537689 -24.71633972 114.593573 -24.72175598 113.53050232 C-24.73491729 110.13303819 -24.72623066 106.73604586 -24.71607971 103.33857727 C-24.7181017 100.96877961 -24.72101419 98.59898255 -24.72477722 96.22918701 C-24.72919548 91.26713628 -24.72278594 86.30524779 -24.70875549 81.34321594 C-24.69167349 74.9935923 -24.70150203 68.64434937 -24.71947289 62.29473972 C-24.73033202 57.40216218 -24.7268544 52.50967434 -24.71908951 47.61709404 C-24.71709292 45.27640169 -24.71952771 42.93570112 -24.72652817 40.59501839 C-24.73417645 37.3186459 -24.72249013 34.04288307 -24.70582581 30.76655579 C-24.7118985 29.80578629 -24.71797119 28.84501678 -24.72422791 27.85513306 C-24.64623538 19.54651551 -22.77151986 12.93197955 -17.06764221 6.68623352 C-12.34368592 2.53168268 -6.27239973 0.03499679 0 0 Z M14.68235779 33.14717102 C14.29782811 35.89686791 14.15471414 38.24302782 14.19651794 40.98921204 C14.19272125 41.77501648 14.18892456 42.56082092 14.18501282 43.37043762 C14.17761132 45.96439193 14.19898143 48.55722276 14.22142029 51.15107727 C14.22380485 52.95421212 14.22471001 54.75734949 14.22419739 56.56048584 C14.22732459 60.33750484 14.2438849 64.11414403 14.27073669 67.8910675 C14.30474079 72.73573546 14.31236454 77.57998655 14.31084633 82.42475986 C14.31138977 86.1470641 14.32235243 89.86927696 14.33684921 93.59155083 C14.34321893 95.3781509 14.34715652 97.16476133 14.34863663 98.95137215 C14.35296643 101.44593629 14.37045954 103.94005574 14.39183044 106.43452454 C14.39092407 107.17486435 14.3900177 107.91520416 14.38908386 108.67797852 C14.43554925 112.38154988 14.57224201 113.98199736 16.68235779 117.14717102 C19.27662577 117.42385327 21.59499424 117.52012344 24.18235779 117.45967102 C25.21683044 117.464505 25.21683044 117.464505 26.27220154 117.46943665 C30.43498283 117.53153103 30.43498283 117.53153103 33.68235779 115.14717102 C34.05475005 112.33314419 34.05475005 112.33314419 34.09642029 109.04560852 C34.13509216 107.83388977 34.17376404 106.62217102 34.21360779 105.37373352 C34.24454529 104.1027179 34.27548279 102.83170227 34.30735779 101.52217102 C34.34602966 100.24342102 34.38470154 98.96467102 34.42454529 97.64717102 C34.51906828 94.48065085 34.60462136 91.31414062 34.68235779 88.14717102 C37.13273537 86.92198223 38.81878749 86.99031036 41.55735779 86.93623352 C42.5434906 86.90787415 43.52962341 86.87951477 44.54563904 86.85029602 C46.60537178 86.79899508 48.66528768 86.75450604 50.72532654 86.71748352 C60.95040577 86.40001664 69.25872329 84.79575569 76.76438904 77.50263977 C82.2869212 70.7203854 83.3573341 62.84020944 83.07298279 54.29951477 C82.23625529 47.54712385 79.68543133 40.87980816 74.68235779 36.14717102 C64.14656741 27.99504362 48.86487295 28.77357685 36.09861755 28.77656555 C33.95715747 28.77209227 31.81761003 28.73529865 29.67649841 28.69795227 C28.29955219 28.692099 26.92259641 28.68811966 25.54563904 28.68623352 C24.3214325 28.67801575 23.09722595 28.66979797 21.83592224 28.66133118 C17.93778438 29.2618804 17.02225858 30.00763939 14.68235779 33.14717102 Z " fill="#000000" transform="translate(390.31764221191406,69.85282897949219)"/>
<path d="M0 0 C0.94681641 -0.020625 1.89363281 -0.04125 2.86914062 -0.0625 C8.25437313 -0.0925641 12.21372 0.1108009 16.8125 3.25 C19.44138538 7.19332807 20.1150583 10.63263055 19.56640625 15.37890625 C18.92337584 18.46886655 18.36905666 20.73801606 16.0078125 22.91015625 C8.95280731 27.21596903 -1.21694173 27.03778774 -9.1875 26.25 C-11.1875 24.25 -11.1875 24.25 -11.43041992 21.92749023 C-11.42631104 20.98075439 -11.42220215 20.03401855 -11.41796875 19.05859375 C-11.41603516 18.03185547 -11.41410156 17.00511719 -11.41210938 15.94726562 C-11.39986328 14.87154297 -11.38761719 13.79582031 -11.375 12.6875 C-11.37435547 11.60791016 -11.37371094 10.52832031 -11.37304688 9.41601562 C-11.31542915 -0.76951712 -9.74405063 0.05200294 0 0 Z " fill="#000000" transform="translate(435.1875,114.75)"/>
</svg>
